0
SECTION
2
HEADER
9
$INSUNITS
70
1
9
$ACADVER
1
AC1014
9
$HANDSEED
5
FFFF
0
ENDSEC
0
SECTION
2
TABLES
0
TABLE
2
VPORT
5
8
100
AcDbSymbolTable
0
ENDTAB
0
TABLE
2
LTYPE
5
5
100
AcDbSymbolTable
0
LTYPE
5
14
100
AcDbSymbolTableRecord
100
AcDbLinetypeTableRecord
2
BYBLOCK
70
0
0
LTYPE
5
15
100
AcDbSymbolTableRecord
100
AcDbLinetypeTableRecord
2
BYLAYER
70
0
0
ENDTAB
0
TABLE
2
LAYER
5
2
100
AcDbSymbolTable
70
2
0
LAYER
5
50
100
AcDbSymbolTableRecord
100
AcDbLayerTableRecord
2
0
70
0
6
CONTINUOUS
0
ENDTAB
0
TABLE
2
STYLE
5
3
100
AcDbSymbolTable
70
1
0
STYLE
5
11
100
AcDbSymbolTableRecord
100
AcDbTextStyleTableRecord
2
STANDARD
70
0
0
ENDTAB
0
TABLE
2
VIEW
5
6
100
AcDbSymbolTable
70
0
0
ENDTAB
0
TABLE
2
UCS
5
7
100
AcDbSymbolTable
70
0
0
ENDTAB
0
TABLE
2
APPID
5
9
100
AcDbSymbolTable
70
2
0
APPID
5
12
100
AcDbSymbolTableRecord
100
AcDbRegAppTableRecord
2
ACAD
70
0
0
ENDTAB
0
TABLE
2
DIMSTYLE
5
A
100
AcDbSymbolTable
70
1
0
ENDTAB
0
TABLE
2
BLOCK_RECORD
5
1
100
AcDbSymbolTable
70
1
0
BLOCK_RECORD
5
1F
100
AcDbSymbolTableRecord
100
AcDbBlockTableRecord
2
*MODEL_SPACE
0
BLOCK_RECORD
5
1B
100
AcDbSymbolTableRecord
100
AcDbBlockTableRecord
2
*PAPER_SPACE
0
ENDTAB
0
ENDSEC
0
SECTION
2
BLOCKS
0
BLOCK
5
20
100
AcDbEntity
100
AcDbBlockBegin
2
*MODEL_SPACE
0
ENDBLK
5
21
100
AcDbEntity
100
AcDbBlockEnd
0
BLOCK
5
1C
100
AcDbEntity
100
AcDbBlockBegin
2
*PAPER_SPACE
0
ENDBLK
5
1D
100
AcDbEntity
100
AcDbBlockEnd
0
ENDSEC
0
SECTION
2
ENTITIES
0
LWPOLYLINE
5
100
100
AcDbEntity
8
0
100
AcDbPolyline
90
11
70
1
43
0.0
10
3.0978285511625425
20
0.35547453819725444
10
3.2228285511625439
20
0.23047453819725222
10
3.2228285511625168
20
-1.9103285511625969
10
3.0978285511625221
20
-2.0353285511625918
10
2.0417261889577931
20
-2.0353285511625847
10
-0.43223981889724733
20
-2.3531290638893081
10
-0.53430780318714466
20
-2.3531290638893076
10
-1.6696766859737011
20
-1.217760181102751
10
-1.669676685973702
20
-1.1156921968128537
10
-0.53430780318714644
20
0.019676685973700904
10
2.0417261889578189
20
0.35547453819727104
0
CIRCLE
5
101
100
AcDbEntity
8
0
100
AcDbCircle
10
1.1667261889578029
20
-1.1667261889578036
30
0
40
0.3125
210
-4.1405395374880204e-35
220
-4.1405395374880161e-35
230
1
0
CIRCLE
5
102
100
AcDbEntity
8
0
100
AcDbCircle
10
-0.48327381104219652
20
-1.1667261889578033
30
0
40
0.755
210
-4.1405395374880204e-35
220
-4.1405395374880161e-35
230
1
0
CIRCLE
5
103
100
AcDbEntity
8
0
100
AcDbCircle
10
2.6322773700601756
20
-0.14452546180273995
30
0
40
0.16732283464566899
210
2.1382117680737565e-50
220
0
230
1
0
CIRCLE
5
104
100
AcDbEntity
8
0
100
AcDbCircle
10
0.51672618895784017
20
-1.1667261889578138
30
0
40
0.10049999999999999
210
0
220
-1.0691058840368783e-50
230
1
0
CIRCLE
5
105
100
AcDbEntity
8
0
100
AcDbCircle
10
-0.48327381104219025
20
-0.16672618895776664
30
0
40
0.10049999999999999
210
0
220
-1.0691058840368783e-50
230
1
0
CIRCLE
5
106
100
AcDbEntity
8
0
100
AcDbCircle
10
-1.4832738110422339
20
-1.1667261889577991
30
0
40
0.10049999999999999
210
0
220
-1.0691058840368783e-50
230
1
0
CIRCLE
5
107
100
AcDbEntity
8
0
100
AcDbCircle
10
-0.4832738110421958
20
-2.1667261889578397
30
0
40
0.10049999999999999
210
0
220
-1.0691058840368783e-50
230
1
0
CIRCLE
5
108
100
AcDbEntity
8
0
100
AcDbCircle
10
2.6322773700601547
20
-1.5353285511625834
30
0
40
0.16732283464566899
210
2.1382117680737565e-50
220
0
230
1
0
CIRCLE
5
109
100
AcDbEntity
8
0
100
AcDbCircle
10
1.1667261889578029
20
-1.1667261889578036
30
0
40
0.3125
210
3.7798601020445745e-51
220
-3.7798601020445781e-51
230
1
0
CIRCLE
5
110
100
AcDbEntity
8
0
100
AcDbCircle
10
-0.48327381104219652
20
-1.1667261889578033
30
0
40
0.755
210
3.7798601020445745e-51
220
-3.7798601020445787e-51
230
1
0
LWPOLYLINE
5
111
100
AcDbEntity
8
0
100
AcDbPolyline
90
11
70
1
43
0.0
10
3.0978285511625425
20
0.35547453819725444
10
3.2228285511625439
20
0.23047453819725222
10
3.2228285511625168
20
-1.9103285511625969
10
3.0978285511625221
20
-2.0353285511625918
10
2.0417261889577931
20
-2.0353285511625847
10
-0.43223981889724733
20
-2.3531290638893081
10
-0.53430780318714466
20
-2.3531290638893076
10
-1.6696766859737011
20
-1.217760181102751
10
-1.669676685973702
20
-1.1156921968128537
10
-0.53430780318714644
20
0.019676685973700904
10
2.0417261889578189
20
0.35547453819727104
0
CIRCLE
5
112
100
AcDbEntity
8
0
100
AcDbCircle
10
2.6322773700601756
20
-0.14452546180273995
30
0
40
0.16732283464566899
210
-1.1339580306133729e-50
220
-3.7798601020445775e-51
230
1
0
CIRCLE
5
113
100
AcDbEntity
8
0
100
AcDbCircle
10
0.51672618895784017
20
-1.1667261889578138
30
0
40
0.10049999999999999
210
-1.1339580306133729e-50
220
-3.7798601020445775e-51
230
1
0
CIRCLE
5
114
100
AcDbEntity
8
0
100
AcDbCircle
10
-0.48327381104219025
20
-0.16672618895776664
30
0
40
0.10049999999999999
210
-1.1339580306133729e-50
220
-3.7798601020445775e-51
230
1
0
CIRCLE
5
115
100
AcDbEntity
8
0
100
AcDbCircle
10
-1.4832738110422339
20
-1.1667261889577991
30
0
40
0.10049999999999999
210
-1.1339580306133729e-50
220
-3.7798601020445775e-51
230
1
0
CIRCLE
5
116
100
AcDbEntity
8
0
100
AcDbCircle
10
-0.4832738110421958
20
-2.1667261889578397
30
0
40
0.10049999999999999
210
-1.1339580306133729e-50
220
-3.7798601020445775e-51
230
1
0
CIRCLE
5
117
100
AcDbEntity
8
0
100
AcDbCircle
10
2.6322773700601547
20
-1.5353285511625834
30
0
40
0.16732283464566899
210
-1.1339580306133729e-50
220
-3.7798601020445775e-51
230
1
0
ENDSEC
0
SECTION
2
OBJECTS
0
DICTIONARY
5
C
100
AcDbDictionary
3
ACAD_GROUP
350
D
3
ACAD_MLINESTYLE
350
17
0
DICTIONARY
5
D
100
AcDbDictionary
0
DICTIONARY
5
1A
330
C
100
AcDbDictionary
0
DICTIONARY
5
17
100
AcDbDictionary
0
ENDSEC
0
EOF
